<svg width="20" height="15" viewBox="0 0 20 15" fill="none" xmlns="http://www.w3.org/2000/svg">
<path d="M9.918 10.994L14.076 0.5H19.332V1.22C18.936 1.22 18.612 1.262 18.36 1.346C18.12 1.418 17.934 1.556 17.802 1.76C17.67 1.964 17.58 2.246 17.532 2.606C17.496 2.954 17.478 3.398 17.478 3.938V10.922C17.478 11.522 17.502 11.996 17.55 12.344C17.598 12.692 17.694 12.962 17.838 13.154C17.982 13.346 18.186 13.472 18.45 13.532C18.726 13.592 19.086 13.628 19.53 13.64V14.36H12.762V13.64C13.206 13.628 13.56 13.592 13.824 13.532C14.1 13.46 14.31 13.334 14.454 13.154C14.61 12.974 14.712 12.722 14.76 12.398C14.808 12.062 14.832 11.612 14.832 11.048V2.624H14.742L9.9 14.54H8.568L3.564 2.624H3.492V10.922C3.492 11.522 3.516 11.996 3.564 12.344C3.612 12.692 3.708 12.962 3.852 13.154C3.996 13.346 4.2 13.472 4.464 13.532C4.74 13.592 5.1 13.628 5.544 13.64V14.36H0V13.64C0.444 13.628 0.804 13.592 1.08 13.532C1.356 13.46 1.566 13.334 1.71 13.154C1.866 12.974 1.968 12.722 2.016 12.398C2.064 12.062 2.088 11.612 2.088 11.048V3.812C2.088 3.308 2.064 2.888 2.016 2.552C1.968 2.216 1.878 1.952 1.746 1.76C1.614 1.556 1.422 1.418 1.17 1.346C0.93 1.262 0.606 1.22 0.198 1.22V0.5H5.652L9.846 10.994H9.918Z" fill="white"/>
</svg>
